<svg xmlns="http://www.w3.org/2000/svg" viewBox="0 0 320 200">
  <rect width="320" height="200" fill="#0f172a"/>
  <rect x="85" y="15" width="150" height="150" rx="8" fill="#ffffff"/>
  <g fill="#1e293b">
    <!-- Position patterns (three corners) -->
    <rect x="95" y="25" width="30" height="30" rx="4"/>
    <rect x="100" y="30" width="20" height="20" rx="2" fill="#ffffff"/>
    <rect x="104" y="34" width="12" height="12" rx="1"/>
    <rect x="195" y="25" width="30" height="30" rx="4"/>
    <rect x="200" y="30" width="20" height="20" rx="2" fill="#ffffff"/>
    <rect x="204" y="34" width="12" height="12" rx="1"/>
    <rect x="95" y="125" width="30" height="30" rx="4"/>
    <rect x="100" y="130" width="20" height="20" rx="2" fill="#ffffff"/>
    <rect x="104" y="134" width="12" height="12" rx="1"/>
    <!-- Data modules -->
    <rect x="135" y="25" width="6" height="6" rx="1"/>
    <rect x="147" y="25" width="6" height="6" rx="1"/>
    <rect x="159" y="25" width="6" height="6" rx="1"/>
    <rect x="171" y="25" width="6" height="6" rx="1"/>
    <rect x="141" y="37" width="6" height="6" rx="1"/>
    <rect x="153" y="37" width="6" height="6" rx="1"/>
    <rect x="165" y="37" width="6" height="6" rx="1"/>
    <rect x="183" y="37" width="6" height="6" rx="1"/>
    <rect x="135" y="49" width="6" height="6" rx="1"/>
    <rect x="159" y="49" width="6" height="6" rx="1"/>
    <rect x="95" y="61" width="6" height="6" rx="1"/>
    <rect x="107" y="61" width="6" height="6" rx="1"/>
    <rect x="119" y="61" width="6" height="6" rx="1"/>
    <rect x="131" y="61" width="6" height="6" rx="1"/>
    <rect x="195" y="61" width="6" height="6" rx="1"/>
    <rect x="135" y="73" width="6" height="6" rx="1"/>
    <rect x="153" y="73" width="6" height="6" rx="1"/>
    <rect x="171" y="73" width="6" height="6" rx="1"/>
    <rect x="183" y="73" width="6" height="6" rx="1"/>
    <rect x="141" y="85" width="6" height="6" rx="1"/>
    <rect x="159" y="85" width="6" height="6" rx="1"/>
    <rect x="135" y="97" width="6" height="6" rx="1"/>
    <rect x="147" y="97" width="6" height="6" rx="1"/>
    <rect x="165" y="97" width="6" height="6" rx="1"/>
    <rect x="183" y="97" width="6" height="6" rx="1"/>
    <rect x="135" y="109" width="6" height="6" rx="1"/>
    <rect x="153" y="109" width="6" height="6" rx="1"/>
    <rect x="171" y="109" width="6" height="6" rx="1"/>
    <rect x="195" y="109" width="6" height="6" rx="1"/>
    <rect x="107" y="125" width="6" height="6" rx="1"/>
    <rect x="119" y="125" width="6" height="6" rx="1"/>
    <rect x="141" y="125" width="6" height="6" rx="1"/>
    <rect x="159" y="125" width="6" height="6" rx="1"/>
    <rect x="171" y="125" width="6" height="6" rx="1"/>
    <rect x="147" y="137" width="6" height="6" rx="1"/>
    <rect x="165" y="137" width="6" height="6" rx="1"/>
    <rect x="183" y="137" width="6" height="6" rx="1"/>
    <rect x="135" y="149" width="6" height="6" rx="1"/>
    <rect x="159" y="149" width="6" height="6" rx="1"/>
    <rect x="171" y="149" width="6" height="6" rx="1"/>
    <rect x="195" y="149" width="6" height="6" rx="1"/>
  </g>
  <text x="160" y="187" text-anchor="middle" font-family="-apple-system,SF Pro Display,Inter,sans-serif" font-weight="700" font-size="11" fill="#64748b" letter-spacing="1.5">QR CODE</text>
</svg>
