<svg xmlns="http://www.w3.org/2000/svg" viewBox="0 0 320 200">
  <rect width="320" height="200" fill="#05070f"/>
  <rect x="40" y="20" width="240" height="160" rx="6" fill="#080c1a" stroke="rgba(236,72,153,0.1)" stroke-width="1"/>
  <rect x="50" y="20" width="55" height="160" fill="#1a1f33"/>
  <rect x="105" y="20" width="55" height="160" fill="#1a1f33"/>
  <rect x="160" y="20" width="55" height="160" fill="#1a1f33"/>
  <rect x="215" y="20" width="55" height="160" fill="#1a1f33"/>
  <line x1="132" y1="30" x2="132" y2="50" stroke="rgba(255,255,255,0.08)" stroke-width="1.5"/>
  <line x1="132" y1="60" x2="132" y2="80" stroke="rgba(255,255,255,0.08)" stroke-width="1.5"/>
  <line x1="132" y1="90" x2="132" y2="110" stroke="rgba(255,255,255,0.08)" stroke-width="1.5"/>
  <line x1="132" y1="120" x2="132" y2="140" stroke="rgba(255,255,255,0.08)" stroke-width="1.5"/>
  <g transform="translate(192 125)">
    <rect x="-18" y="-28" width="36" height="56" rx="6" fill="#ec4899"/>
    <rect x="-13" y="-23" width="22" height="8" rx="2" fill="rgba(255,255,255,0.12)"/>
    <rect x="-13" y="-11" width="22" height="10" rx="2" fill="rgba(255,255,255,0.06)"/>
  </g>
  <g transform="translate(87 45)">
    <rect x="-14" y="-22" width="28" height="44" rx="4" fill="#eab308"/>
    <rect x="-10" y="-18" width="18" height="7" rx="2" fill="rgba(0,0,0,0.15)"/>
    <rect x="-10" y="-8" width="18" height="9" rx="2" fill="rgba(0,0,0,0.1)"/>
  </g>
  <g transform="translate(242 70)">
    <rect x="-14" y="-22" width="28" height="44" rx="4" fill="#ef4444"/>
    <rect x="-10" y="-18" width="18" height="7" rx="2" fill="rgba(0,0,0,0.15)"/>
  </g>
</svg>
