<svg xmlns="http://www.w3.org/2000/svg" viewBox="0 0 320 200">
  <rect width="320" height="200" fill="#04050a"/>
  <rect x="15" y="12" width="290" height="176" rx="6" fill="#04050a" stroke="rgba(59,130,246,0.04)" stroke-width="1"/>
  <text x="22" y="26" font-family="monospace" font-size="4" fill="#475569">SCORE</text>
  <text x="52" y="26" font-family="monospace" font-size="4" fill="#e2e8f0">0</text>
  <text x="105" y="26" font-family="monospace" font-size="4" fill="#475569">SHIELD</text>
  <text x="135" y="26" font-family="monospace" font-size="4" fill="#10b981">100</text>
  <text x="195" y="26" font-family="monospace" font-size="4" fill="#475569">WAVE</text>
  <text x="220" y="26" font-family="monospace" font-size="4" fill="#e2e8f0">1</text>
  <text x="265" y="26" font-family="monospace" font-size="4" fill="#475569">BEST</text>
  <text x="288" y="26" font-family="monospace" font-size="4" fill="#e2e8f0">0</text>
  <circle cx="45" cy="48" r="0.5" fill="#fff" opacity="0.6"/>
  <circle cx="120" cy="55" r="0.3" fill="#fff" opacity="0.4"/>
  <circle cx="250" cy="42" r="0.6" fill="#fff" opacity="0.5"/>
  <circle cx="180" cy="60" r="0.4" fill="#fff" opacity="0.3"/>
  <circle cx="300" cy="52" r="0.5" fill="#fff" opacity="0.4"/>
  <polygon points="140,55 166,90 156,90 140,93 124,90 114,90" fill="#3b82f6"/>
  <polygon points="140,60 158,87 150,87 140,89 130,87 122,87" fill="rgba(255,255,255,0.08)"/>
  <circle cx="140" cy="86" r="3" fill="#60a5fa"/>
  <circle cx="140" cy="86" r="1.5" fill="#1e3a5f"/>
  <polygon points="50,78 61,90 55,90 50,92 45,90 39,90" fill="#f97316"/>
  <polygon points="200,100 211,112 205,112 200,114 195,112 189,112" fill="#f97316"/>
  <polygon points="260,140 271,152 265,152 260,154 255,152 249,152" fill="#dc2626"/>
  <polygon points="55,120 62,130 58,130 55,131 53,130 48,130" fill="#f97316"/>
  <rect x="140" y="42" width="3" height="10" fill="#10b981" rx="1"/>
  <rect x="142" y="40" width="1" height="3" fill="rgba(255,255,255,0.3)"/>
  <circle cx="200" cy="100" r="2" fill="#f97316"/>
  <circle cx="260" cy="140" r="2" fill="#f97316"/>
  <circle cx="55" cy="120" r="2" fill="#f97316"/>
  <circle cx="50" cy="120" r="2" fill="#f97316"/>
</svg>
