<svg xmlns="http://www.w3.org/2000/svg" viewBox="0 0 320 200">
  <rect width="320" height="200" fill="#05070c"/>
  <rect x="12" y="12" width="296" height="176" rx="8" fill="#080b14" stroke="rgba(251,191,36,0.08)" stroke-width="1"/>
  <line x1="45" y1="105" x2="95" y2="80" stroke="rgba(251,191,36,0.15)" stroke-width="1" stroke-dasharray="4,4"/>
  <g transform="translate(35 100)">
    <line x1="0" y1="-20" x2="20" y2="0" stroke="rgba(148,163,184,0.4)" stroke-width="1.5"/>
    <line x1="0" y1="20" x2="20" y2="0" stroke="rgba(148,163,184,0.4)" stroke-width="1.5"/>
    <path d="M0 0 A14 14 0 0 1 12 10" fill="none" stroke="rgba(148,163,184,0.25)" stroke-width="1.5"/>
  </g>
  <circle cx="245" cy="105" r="48" fill="#1e40af"/>
  <circle cx="245" cy="105" r="30" fill="#dc2626"/>
  <circle cx="245" cy="105" r="14" fill="#f59e0b"/>
  <circle cx="245" cy="105" r="3" fill="rgba(255,255,255,0.2)"/>
  <g transform="translate(95 130)" stroke="rgba(226,232,240,0.5)" stroke-width="1.5" fill="none">
    <line x1="0" y1="0" x2="4" y2="-2"/>
    <line x1="0" y1="0" x2="4" y2="2"/>
    <line x1="4" y1="-2" x2="10" y2="0"/>
    <line x1="4" y1="2" x2="10" y2="0"/>
  </g>
</svg>
