<svg xmlns="http://www.w3.org/2000/svg" viewBox="0 0 1280 720" width="1280" height="720">
  <defs>
    <radialGradient id="bobGrad" cx="35%" cy="35%" r="65%">
      <stop offset="0%" stop-color="#94a3b8"/>
      <stop offset="60%" stop-color="#64748b"/>
      <stop offset="100%" stop-color="#1f2937"/>
    </radialGradient>
    <linearGradient id="peGrad" x1="0" y1="0" x2="1" y2="0">
      <stop offset="0%" stop-color="#1d4ed8"/>
      <stop offset="100%" stop-color="#3b82f6"/>
    </linearGradient>
    <linearGradient id="keGrad" x1="0" y1="0" x2="1" y2="0">
      <stop offset="0%" stop-color="#dc2626"/>
      <stop offset="100%" stop-color="#ef4444"/>
    </linearGradient>
    <linearGradient id="totalGrad" x1="0" y1="0" x2="1" y2="0">
      <stop offset="0%" stop-color="#059669"/>
      <stop offset="100%" stop-color="#10b981"/>
    </linearGradient>
  </defs>
  <rect width="1280" height="720" fill="#070a13"/>
  <rect x="0" y="0" width="280" height="720" fill="#111827"/>
  <rect x="280" y="0" width="1" height="720" fill="#1f2937"/>
  <rect x="1019" y="0" width="1" height="720" fill="#1f2937"/>
  <rect x="1020" y="0" width="260" height="720" fill="#111827"/>
  <text x="20" y="50" fill="#f8fafc" font-family="monospace" font-size="12" font-weight="bold" letter-spacing="1.5">HARMONIC OSCILLATOR</text>
  <text x="20" y="68" fill="#94a3b8" font-family="monospace" font-size="10" letter-spacing="1">Pendulum Engine</text>
  <rect x="15" y="90" width="250" height="210" fill="rgba(26,31,46,0.8)" rx="10"/>
  <text x="30" y="112" fill="#94a3b8" font-family="monospace" font-size="10" letter-spacing="0.5">CABLE LENGTH (L)</text>
  <text x="245" y="112" fill="#3b82f6" font-family="monospace" font-size="11" font-weight="600" text-anchor="end">1.5 m</text>
  <rect x="30" y="118" width="220" height="4" fill="#1f2937" rx="2"/>
  <circle cx="150" cy="120" r="7" fill="#3b82f6"/>
  <text x="30" y="152" fill="#94a3b8" font-family="monospace" font-size="10" letter-spacing="0.5">GRAVITATIONAL FIELD (g)</text>
  <rect x="30" y="158" width="70" height="32" fill="rgba(59,130,246,0.15)" rx="6" stroke="#3b82f6" stroke-width="1"/>
  <text x="65" y="170" fill="#3b82f6" font-family="monospace" font-size="9" font-weight="600" text-anchor="middle">EARTH</text>
  <text x="65" y="182" fill="#3b82f6" font-family="monospace" font-size="7" text-anchor="middle">9.81</text>
  <rect x="105" y="158" width="70" height="32" fill="#1f2937" rx="6" stroke="#1f2937" stroke-width="1"/>
  <text x="140" y="170" fill="#94a3b8" font-family="monospace" font-size="9" font-weight="600" text-anchor="middle">MARS</text>
  <text x="140" y="182" fill="#64748b" font-family="monospace" font-size="7" text-anchor="middle">3.71</text>
  <rect x="180" y="158" width="70" height="32" fill="#1f2937" rx="6" stroke="#1f2937" stroke-width="1"/>
  <text x="215" y="170" fill="#94a3b8" font-family="monospace" font-size="9" font-weight="600" text-anchor="middle">MOON</text>
  <text x="215" y="182" fill="#64748b" font-family="monospace" font-size="7" text-anchor="middle">1.62</text>
  <text x="30" y="210" fill="#94a3b8" font-family="monospace" font-size="10" letter-spacing="0.5">DAMPING COEFFICIENT (b)</text>
  <text x="245" y="210" fill="#3b82f6" font-family="monospace" font-size="11" font-weight="600" text-anchor="end">0.000</text>
  <rect x="30" y="218" width="220" height="4" fill="#1f2937" rx="2"/>
  <circle cx="50" cy="220" r="7" fill="#3b82f6"/>
  <rect x="15" y="316" width="250" height="42" fill="#3b82f6" rx="8"/>
  <text x="140" y="341" fill="#fff" font-family="monospace" font-size="11" font-weight="700" letter-spacing="1" text-anchor="middle">PAUSE SIMULATION</text>
  <rect x="15" y="366" width="250" height="36" fill="none" rx="8" stroke="#1f2937" stroke-width="1"/>
  <text x="140" y="388" fill="#94a3b8" font-family="monospace" font-size="10" font-weight="600" letter-spacing="0.5" text-anchor="middle">RESET INITIAL EQUILIBRIUM</text>
  <rect x="15" y="420" width="250" height="110" fill="rgba(26,31,46,0.8)" rx="10"/>
  <text x="30" y="442" fill="#64748b" font-family="monospace" font-size="10" letter-spacing="1">DIAGNOSTICS</text>
  <text x="30" y="468" fill="#64748b" font-family="monospace" font-size="9">THEORETICAL PERIOD (T)</text>
  <text x="245" y="468" fill="#f8fafc" font-family="monospace" font-size="11" font-weight="600" text-anchor="end">2.46 s</text>
  <line x1="30" y1="475" x2="245" y2="475" stroke="rgba(31,41,55,0.5)" stroke-width="1"/>
  <text x="30" y="493" fill="#64748b" font-family="monospace" font-size="9">ANGULAR VELOCITY (&omega;)</text>
  <text x="245" y="493" fill="#f8fafc" font-family="monospace" font-size="11" font-weight="600" text-anchor="end">0.00 rad/s</text>
  <line x1="30" y1="500" x2="245" y2="500" stroke="rgba(31,41,55,0.5)" stroke-width="1"/>
  <text x="30" y="518" fill="#64748b" font-family="monospace" font-size="9">INSTANT ANGLE (&theta;)</text>
  <text x="245" y="518" fill="#f8fafc" font-family="monospace" font-size="11" font-weight="600" text-anchor="end">30.0&deg;</text>
  <rect x="640" y="85" width="8" height="32" fill="#1f2937" rx="2"/>
  <rect x="630" y="117" width="28" height="5" fill="#1f2937" rx="2"/>
  <line x1="644" y1="85" x2="644" y2="117" stroke="#f8fafc" stroke-width="1"/>
  <circle cx="644" cy="117" r="2" fill="#f8fafc"/>
  <line x1="644" y1="119" x2="510" y2="480" stroke="#f8fafc" stroke-width="1.5"/>
  <circle cx="510" cy="480" r="16" fill="url(#bobGrad)"/>
  <circle cx="510" cy="480" r="16" stroke="rgba(248,250,252,0.3)" stroke-width="1" fill="none"/>
  <path d="M644 117 Q644 380 500 480" fill="none" stroke="rgba(245,158,11,0.3)" stroke-width="1.5" stroke-dasharray="3,3"/>
  <text x="580" y="300" fill="#f59e0b" font-family="monospace" font-size="9" text-anchor="middle">30.0&deg;</text>
  <path d="M400 85 Q600 85 800 85" fill="none" stroke="rgba(255,255,255,0.03)" stroke-width="1"/>
  <path d="M400 170 Q600 170 800 170" fill="none" stroke="rgba(255,255,255,0.03)" stroke-width="1"/>
  <path d="M400 255 Q600 255 800 255" fill="none" stroke="rgba(255,255,255,0.03)" stroke-width="1"/>
  <path d="M400 340 Q600 340 800 340" fill="none" stroke="rgba(255,255,255,0.03)" stroke-width="1"/>
  <path d="M400 425 Q600 425 800 425" fill="none" stroke="rgba(255,255,255,0.03)" stroke-width="1"/>
  <path d="M400 510 Q600 510 800 510" fill="none" stroke="rgba(255,255,255,0.03)" stroke-width="1"/>
  <path d="M400 595 Q600 595 800 595" fill="none" stroke="rgba(255,255,255,0.03)" stroke-width="1"/>
  <path d="M400 680 Q600 680 800 680" fill="none" stroke="rgba(255,255,255,0.03)" stroke-width="1"/>
  <path d="M440 85 L440 695" fill="none" stroke="rgba(255,255,255,0.03)" stroke-width="1"/>
  <path d="M530 85 L530 695" fill="none" stroke="rgba(255,255,255,0.03)" stroke-width="1"/>
  <path d="M620 85 L620 695" fill="none" stroke="rgba(255,255,255,0.03)" stroke-width="1"/>
  <path d="M710 85 L710 695" fill="none" stroke="rgba(255,255,255,0.03)" stroke-width="1"/>
  <path d="M800 85 L800 695" fill="none" stroke="rgba(255,255,255,0.03)" stroke-width="1"/>
  <text x="1060" y="50" fill="#64748b" font-family="monospace" font-size="11" letter-spacing="1">ENERGY BALANCE</text>
  <rect x="1040" y="70" width="220" height="70" fill="rgba(26,31,46,0.8)" rx="8"/>
  <text x="1055" y="92" fill="#64748b" font-family="monospace" font-size="9">POTENTIAL ENERGY (PE)</text>
  <text x="1240" y="92" fill="#3b82f6" font-family="monospace" font-size="11" font-weight="700" text-anchor="end">4.28 J</text>
  <rect x="1055" y="102" width="190" height="8" fill="#1f2937" rx="4"/>
  <rect x="1055" y="102" width="120" height="8" fill="url(#peGrad)" rx="4" style="filter: drop-shadow(0 0 4px rgba(59,130,246,0.4))"/>
  <rect x="1055" y="118" width="190" height="8" fill="#1f2937" rx="4"/>
  <rect x="1055" y="118" width="60" height="8" fill="url(#peGrad)" rx="4" style="filter: drop-shadow(0 0 4px rgba(59,130,246,0.4))"/>
  <rect x="1040" y="155" width="220" height="70" fill="rgba(26,31,46,0.8)" rx="8"/>
  <text x="1055" y="177" fill="#64748b" font-family="monospace" font-size="9">KINETIC ENERGY (KE)</text>
  <text x="1240" y="177" fill="#ef4444" font-family="monospace" font-size="11" font-weight="700" text-anchor="end">0.00 J</text>
  <rect x="1055" y="187" width="190" height="8" fill="#1f2937" rx="4"/>
  <rect x="1055" y="187" width="5" height="8" fill="url(#keGrad)" rx="4" style="filter: drop-shadow(0 0 4px rgba(239,68,68,0.4))"/>
  <rect x="1055" y="203" width="190" height="8" fill="#1f2937" rx="4"/>
  <rect x="1055" y="203" width="5" height="8" fill="url(#keGrad)" rx="4"/>
  <rect x="1040" y="240" width="220" height="70" fill="rgba(26,31,46,0.8)" rx="8"/>
  <text x="1055" y="262" fill="#64748b" font-family="monospace" font-size="9">TOTAL MECHANICAL ENERGY</text>
  <text x="1240" y="262" fill="#10b981" font-family="monospace" font-size="11" font-weight="700" text-anchor="end">4.28 J</text>
  <rect x="1055" y="272" width="190" height="8" fill="#1f2937" rx="4"/>
  <rect x="1055" y="272" width="190" height="8" fill="url(#totalGrad)" rx="4" style="filter: drop-shadow(0 0 4px rgba(16,185,129,0.4))"/>
  <rect x="1055" y="288" width="190" height="8" fill="#1f2937" rx="4"/>
  <rect x="1055" y="288" width="190" height="8" fill="url(#totalGrad)" rx="4"/>
  <rect x="1040" y="330" width="220" height="36" fill="rgba(26,31,46,0.8)" rx="8"/>
  <circle cx="1058" cy="348" r="3" fill="#10b981" style="filter: drop-shadow(0 0 4px rgba(16,185,129,0.6))"/>
  <text x="1068" y="352" fill="#94a3b8" font-family="monospace" font-size="9" letter-spacing="0.5">LAW OF CONSERVATION VALIDATED</text>
  <text x="640" y="710" fill="#64748b" font-family="monospace" font-size="11" text-anchor="middle" letter-spacing="2">PENDULUM SIMULATION</text>
</svg>
