<svg xmlns="http://www.w3.org/2000/svg" viewBox="0 0 320 200">
  <rect width="320" height="200" fill="#0a0712"/>
  <rect x="20" y="16" width="280" height="168" rx="8" fill="#0c0918" stroke="rgba(255,42,95,0.06)" stroke-width="1"/>
  <text x="28" y="32" font-family="monospace" font-size="5" fill="#475569">SCORE</text>
  <text x="56" y="32" font-family="monospace" font-size="5" fill="#e2e8f0">0</text>
  <text x="120" y="32" font-family="monospace" font-size="5" fill="#475569">COMBO</text>
  <text x="148" y="32" font-family="monospace" font-size="5" fill="#facc15">1×</text>
  <text x="220" y="32" font-family="monospace" font-size="5" fill="#475569">LIVES</text>
  <text x="248" y="32" font-family="monospace" font-size="5" fill="#e2e8f0">3</text>
  <text x="280" y="32" font-family="monospace" font-size="5" fill="#475569">BEST</text>
  <text x="295" y="32" font-family="monospace" font-size="5" fill="#e2e8f0">0</text>
  <circle cx="60" cy="70" r="9" fill="#ff2a5f"/>
  <circle cx="58" cy="68" r="2.5" fill="rgba(255,255,255,0.1)"/>
  <circle cx="130" cy="55" r="9" fill="#00f0ff"/>
  <circle cx="128" cy="53" r="2.5" fill="rgba(255,255,255,0.1)"/>
  <circle cx="220" cy="80" r="9" fill="#a855f7"/>
  <circle cx="218" cy="78" r="2.5" fill="rgba(255,255,255,0.1)"/>
  <circle cx="280" cy="60" r="9" fill="#facc15"/>
  <circle cx="278" cy="58" r="2.5" fill="rgba(255,255,255,0.1)"/>
  <circle cx="95" cy="100" r="9" fill="#ff2a5f"/>
  <circle cx="93" cy="98" r="2.5" fill="rgba(255,255,255,0.1)"/>
  <circle cx="170" cy="120" r="9" fill="#1e293b"/>
  <text x="170" y="124" font-family="sans-serif" font-size="9" fill="rgba(255,255,255,0.06)" text-anchor="middle">✕</text>
  <circle cx="260" cy="115" r="9" fill="#00f0ff"/>
  <circle cx="258" cy="113" r="2.5" fill="rgba(255,255,255,0.1)"/>
  <polygon points="60,155 140,155 132,165 68,165" fill="#facc15"/>
  <polygon points="64,155 136,155" stroke="rgba(255,255,255,0.06)" stroke-width="2"/>
  <text x="100" y="164" font-family="monospace" font-size="7" fill="rgba(255,255,255,0.04)" text-anchor="middle">BASKET</text>
</svg>
