<svg xmlns="http://www.w3.org/2000/svg" viewBox="0 0 320 200">
  <rect width="320" height="200" fill="#070810"/>
  <rect x="70" y="18" width="180" height="164" rx="10" fill="rgba(255,255,255,0.01)" stroke="rgba(255,255,255,0.03)" stroke-width="1"/>
  <g font-family="system-ui,Inter,sans-serif" font-weight="800" text-anchor="middle">
    <g transform="translate(86 42)">
      <rect x="-18" y="-18" width="36" height="36" rx="5" fill="linear-gradient(145deg,#1e293b,#0f172a)"/><text y="7" font-size="14" fill="#06b6d4">1</text></g>
    <g transform="translate(126 42)">
      <rect x="-18" y="-18" width="36" height="36" rx="5" fill="linear-gradient(145deg,#1e293b,#0f172a)"/><text y="7" font-size="14" fill="#f59e0b">2</text></g>
    <g transform="translate(166 42)">
      <rect x="-18" y="-18" width="36" height="36" rx="5" fill="linear-gradient(145deg,#1e293b,#0f172a)"/><text y="7" font-size="14" fill="#06b6d4">3</text></g>
    <g transform="translate(206 42)">
      <rect x="-18" y="-18" width="36" height="36" rx="5" fill="linear-gradient(145deg,#1e293b,#0f172a)"/><text y="7" font-size="14" fill="#06b6d4">4</text></g>
    <g transform="translate(86 82)">
      <rect x="-18" y="-18" width="36" height="36" rx="5" fill="linear-gradient(145deg,#1e293b,#0f172a)"/><text y="7" font-size="14" fill="#06b6d4">5</text></g>
    <g transform="translate(126 82)">
      <rect x="-18" y="-18" width="36" height="36" rx="5" fill="linear-gradient(145deg,#1e293b,#0f172a)"/><text y="7" font-size="14" fill="#06b6d4">6</text></g>
    <g transform="translate(166 82)">
      <rect x="-18" y="-18" width="36" height="36" rx="5" fill="linear-gradient(145deg,#1e293b,#0f172a)"/><text y="7" font-size="14" fill="#06b6d4">7</text></g>
    <g transform="translate(206 82)">
      <rect x="-18" y="-18" width="36" height="36" rx="5"/><text y="7" font-size="14" fill="#06b6d4">8</text></g>
    <g transform="translate(86 122)">
      <rect x="-18" y="-18" width="36" height="36" rx="5" fill="linear-gradient(145deg,#1e293b,#0f172a)"/><text y="7" font-size="14" fill="#06b6d4">9</text></g>
    <g transform="translate(126 122)">
      <rect x="-18" y="-18" width="36" height="36" rx="5" fill="linear-gradient(145deg,#1e293b,#0f172a)"/><text y="7" font-size="14" fill="#06b6d4">10</text></g>
    <g transform="translate(166 122)">
      <rect x="-18" y="-18" width="36" height="36" rx="5" fill="linear-gradient(145deg,#1e293b,#0f172a)"/><text y="7" font-size="14" fill="#06b6d4">11</text></g>
    <g transform="translate(206 122)">
      <rect x="-18" y="-18" width="36" height="36" rx="5" fill="linear-gradient(145deg,#1e293b,#0f172a)"/><text y="7" font-size="14" fill="#06b6d4">12</text></g>
    <g transform="translate(86 162)">
      <rect x="-18" y="-18" width="36" height="36" rx="5" fill="linear-gradient(145deg,#1e293b,#0f172a)"/><text y="7" font-size="14" fill="#06b6d4">13</text></g>
    <g transform="translate(126 162)">
      <rect x="-18" y="-18" width="36" height="36" rx="5" fill="linear-gradient(145deg,#1e293b,#0f172a)"/><text y="7" font-size="14" fill="#06b6d4">14</text></g>
    <g transform="translate(166 162)">
      <rect x="-18" y="-18" width="36" height="36" rx="5" fill="linear-gradient(145deg,#1e293b,#0f172a)"/><text y="7" font-size="14" fill="#06b6d4">15</text></g>
    <g transform="translate(206 162)">
      <rect x="-18" y="-18" width="36" height="36" rx="5" fill="none" stroke="none"/>
    </g>
  </g>
</svg>
