<svg xmlns="http://www.w3.org/2000/svg" viewBox="0 0 320 200">
  <rect width="320" height="200" fill="#060713"/>
  <rect x="10" y="10" width="300" height="180" rx="8" fill="#060713" stroke="rgba(255,255,255,0.03)" stroke-width="1"/>
  <!-- topbar -->
  <text x="18" y="28" font-family="system-ui, sans-serif" font-size="7" font-weight="700" fill="#e2e8f0">Kanban</text>
  <text x="52" y="28" font-family="system-ui, sans-serif" font-size="5" fill="#64748b">Task Board</text>
  <rect x="240" y="18" width="58" height="18" rx="4" fill="#3b82f6"/>
  <text x="269" y="31" font-family="system-ui, sans-serif" font-size="5" font-weight="700" fill="#fff" text-anchor="middle">+ Create</text>
  <!-- columns -->
  <rect x="14" y="46" width="92" height="140" rx="6" fill="rgba(30,41,59,0.5)" stroke="rgba(255,255,255,0.05)" stroke-width="1"/>
  <circle cx="24" cy="60" r="3" fill="#3b82f6"/>
  <text x="32" y="63" font-family="system-ui, sans-serif" font-size="5" font-weight="600" fill="#e2e8f0" text-transform="uppercase">To Do</text>
  <rect x="86" y="54" width="14" height="12" rx="6" fill="#0b0d1a"/>
  <text x="93" y="63" font-family="system-ui, sans-serif" font-size="5" font-weight="700" fill="#64748b" text-anchor="middle">1</text>
  <!-- card 1 -->
  <rect x="20" y="72" width="80" height="50" rx="4" fill="#12142a" stroke="rgba(255,255,255,0.05)" stroke-width="1"/>
  <rect x="24" y="76" width="18" height="8" rx="2" fill="rgba(59,130,246,0.15)"/>
  <text x="27" y="83" font-family="system-ui, sans-serif" font-size="4" font-weight="700" fill="#3b82f6">low</text>
  <text x="24" y="94" font-family="system-ui, sans-serif" font-size="5" font-weight="600" fill="#e2e8f0">Setup CI</text>
  <!-- card 2 -->
  <rect x="20" y="128" width="80" height="50" rx="4" fill="#12142a" stroke="rgba(255,255,255,0.05)" stroke-width="1"/>
  <rect x="24" y="132" width="24" height="8" rx="2" fill="rgba(239,68,68,0.15)"/>
  <text x="27" y="139" font-family="system-ui, sans-serif" font-size="4" font-weight="700" fill="#ef4444">high</text>
  <text x="24" y="150" font-family="system-ui, sans-serif" font-size="5" font-weight="600" fill="#e2e8f0">Deploy v2</text>
  <!-- col 2 -->
  <rect x="114" y="46" width="92" height="140" rx="6" fill="rgba(30,41,59,0.5)" stroke="rgba(255,255,255,0.05)" stroke-width="1"/>
  <circle cx="124" cy="60" r="3" fill="#f59e0b"/>
  <text x="132" y="63" font-family="system-ui, sans-serif" font-size="5" font-weight="600" fill="#e2e8f0">In Progress</text>
  <rect x="186" y="54" width="14" height="12" rx="6" fill="#0b0d1a"/>
  <text x="193" y="63" font-family="system-ui, sans-serif" font-size="5" font-weight="700" fill="#64748b" text-anchor="middle">2</text>
  <rect x="120" y="72" width="80" height="50" rx="4" fill="#12142a" stroke="rgba(255,255,255,0.05)" stroke-width="1"/>
  <rect x="124" y="76" width="24" height="8" rx="2" fill="rgba(245,158,11,0.15)"/>
  <text x="127" y="83" font-family="system-ui, sans-serif" font-size="4" font-weight="700" fill="#f59e0b">med</text>
  <text x="124" y="94" font-family="system-ui, sans-serif" font-size="5" font-weight="600" fill="#e2e8f0">API design</text>
  <rect x="120" y="128" width="80" height="50" rx="4" fill="#12142a" stroke="rgba(255,255,255,0.05)" stroke-width="1"/>
  <rect x="124" y="132" width="24" height="8" rx="2" fill="rgba(245,158,11,0.15)"/>
  <text x="127" y="139" font-family="system-ui, sans-serif" font-size="4" font-weight="700" fill="#f59e0b">med</text>
  <text x="124" y="150" font-family="system-ui, sans-serif" font-size="5" font-weight="600" fill="#e2e8f0">Tests</text>
  <!-- col 3 -->
  <rect x="214" y="46" width="92" height="140" rx="6" fill="rgba(30,41,59,0.5)" stroke="rgba(255,255,255,0.05)" stroke-width="1"/>
  <circle cx="224" cy="60" r="3" fill="#10b981"/>
  <text x="232" y="63" font-family="system-ui, sans-serif" font-size="5" font-weight="600" fill="#e2e8f0">Done</text>
  <rect x="286" y="54" width="14" height="12" rx="6" fill="#0b0d1a"/>
  <text x="293" y="63" font-family="system-ui, sans-serif" font-size="5" font-weight="700" fill="#64748b" text-anchor="middle">0</text>
  <text x="260" y="120" font-family="system-ui, sans-serif" font-size="5" fill="#475569" text-anchor="middle">No tasks</text>
</svg>
