<svg xmlns="http://www.w3.org/2000/svg" viewBox="0 0 320 200">
  <rect width="320" height="200" fill="#060814"/>
  <rect x="15" y="12" width="290" height="176" rx="6" fill="#060814" stroke="rgba(0,240,255,0.04)" stroke-width="1"/>
  <text x="22" y="26" font-family="monospace" font-size="4.5" fill="#475569">DIST</text>
  <text x="48" y="26" font-family="monospace" font-size="4.5" fill="#e2e8f0">0</text>
  <text x="110" y="26" font-family="monospace" font-size="4.5" fill="#475569">SPEED</text>
  <text x="145" y="26" font-family="monospace" font-size="4.5" fill="#facc15">1.0×</text>
  <text x="220" y="26" font-family="monospace" font-size="4.5" fill="#475569">BEST</text>
  <text x="248" y="26" font-family="monospace" font-size="4.5" fill="#e2e8f0">0</text>
  <rect x="55" y="120" width="16" height="22" rx="2" fill="#ff2a5f"/>
  <rect x="58" y="123" width="10" height="3" fill="rgba(255,255,255,0.1)"/>
  <rect x="58" y="126" width="3" height="2" fill="#fff"/>
  <rect x="65" y="126" width="3" height="2" fill="#fff"/>
  <rect x="180" y="128" width="18" height="14" rx="1" fill="#00f0ff" opacity="0.9"/>
  <rect x="183" y="131" width="12" height="2" fill="rgba(255,255,255,0.08)"/>
  <rect x="240" y="118" width="14" height="24" rx="1" fill="#00f0ff" opacity="0.8"/>
  <rect x="243" y="121" width="8" height="2" fill="rgba(255,255,255,0.08)"/>
  <line x1="10" y1="146" x2="310" y2="146" stroke="#10b981" stroke-width="2"/>
  <line x1="10" y1="150" x2="310" y2="150" stroke="rgba(16,185,129,0.08)" stroke-width="6"/>
</svg>
