<svg xmlns="http://www.w3.org/2000/svg" viewBox="0 0 320 200">
  <rect width="320" height="200" fill="#05070c"/>
  <rect x="10" y="10" width="300" height="180" rx="6" fill="#05070c" stroke="rgba(0,240,255,0.03)" stroke-width="1"/>
  <rect x="14" y="14" width="140" height="22" rx="4" fill="rgba(255,255,255,0.01)" stroke="rgba(255,255,255,0.03)" stroke-width="1"/>
  <text x="20" y="29" font-family="monospace" font-size="5" fill="#475569">Select a city…</text>
  <rect x="160" y="14" width="40" height="22" rx="4" fill="#00f0ff" opacity="0.9"/>
  <text x="180" y="29" font-family="monospace" font-size="6" fill="#fff" text-anchor="middle" font-weight="700">Add</text>
  <rect x="240" y="14" width="40" height="22" rx="4" fill="rgba(255,255,255,0.01)" stroke="rgba(255,255,255,0.03)" stroke-width="1"/>
  <text x="260" y="29" font-family="monospace" font-size="5" fill="#475569">24h</text>
  <rect x="14" y="42" width="140" height="70" rx="6" fill="rgba(255,255,255,0.01)" stroke="rgba(245,158,11,0.08)" stroke-width="1"/>
  <text x="20" y="54" font-family="monospace" font-size="6" fill="#00f0ff" font-weight="800">London</text>
  <text x="20" y="62" font-family="monospace" font-size="4" fill="#475569">Europe/London</text>
  <text x="130" y="62" font-family="monospace" font-size="4" fill="#facc15">same time</text>
  <text x="20" y="90" font-family="monospace" font-size="18" fill="#f59e0b" font-weight="800">14:32:10</text>
  <text x="20" y="104" font-family="monospace" font-size="4.5" fill="#475569">Mon, Jun 8, 2026</text>
  <rect x="166" y="42" width="140" height="70" rx="6" fill="rgba(10,15,30,0.02)" stroke="rgba(30,58,95,0.3)" stroke-width="1"/>
  <text x="172" y="54" font-family="monospace" font-size="6" fill="#60a5fa" font-weight="800">Tokyo</text>
  <text x="172" y="62" font-family="monospace" font-size="4" fill="#475569">Asia/Tokyo</text>
  <text x="272" y="62" font-family="monospace" font-size="4" fill="#facc15">+5h ahead</text>
  <text x="172" y="90" font-family="monospace" font-size="18" fill="#60a5fa" font-weight="800">23:32:10</text>
  <text x="172" y="104" font-family="monospace" font-size="4.5" fill="#475569">Mon, Jun 8, 2026</text>
  <text x="160" y="130" font-family="monospace" font-size="4" fill="#373e4b" text-anchor="middle">2 cities · synced to local clock</text>
  <rect x="14" y="140" width="140" height="42" rx="6" fill="rgba(255,255,255,0.01)" stroke="rgba(245,158,11,0.08)" stroke-width="1"/>
  <text x="20" y="152" font-family="monospace" font-size="6" fill="#00f0ff" font-weight="800">New York</text>
  <text x="20" y="160" font-family="monospace" font-size="4" fill="#475569">America/New_York</text>
  <text x="130" y="160" font-family="monospace" font-size="4" fill="#facc15">-4h behind</text>
  <text x="20" y="176" font-family="monospace" font-size="14" fill="#f59e0b" font-weight="800">09:32:10</text>
</svg>
