<svg xmlns="http://www.w3.org/2000/svg" viewBox="0 0 1280 720" width="1280" height="720">
  <defs>
    <linearGradient id="trajectoryGrad" x1="0" y1="0" x2="1" y2="0">
      <stop offset="0%" stop-color="#3b82f6" stop-opacity="0.8"/>
      <stop offset="100%" stop-color="#3b82f6" stop-opacity="0.1"/>
    </linearGradient>
    <radialGradient id="projectileGlow" cx="50%" cy="50%" r="50%">
      <stop offset="0%" stop-color="#3b82f6" stop-opacity="0.5"/>
      <stop offset="100%" stop-color="#3b82f6" stop-opacity="0"/>
    </radialGradient>
  </defs>
  <rect width="1280" height="720" fill="#070a13"/>
  <rect x="0" y="0" width="360" height="720" fill="#111827"/>
  <rect x="360" y="0" width="2" height="720" fill="#1f2937"/>
  <text x="30" y="60" fill="#f8fafc" font-family="monospace" font-size="13" font-weight="bold" letter-spacing="1.5">BALISTIC DYNAMICS</text>
  <text x="30" y="80" fill="#94a3b8" font-family="monospace" font-size="10" letter-spacing="1">Kinematic Simulation Engine</text>
  <rect x="20" y="110" width="320" height="210" fill="rgba(26,31,46,0.8)" rx="10"/>
  <text x="35" y="135" fill="#94a3b8" font-family="monospace" font-size="10" letter-spacing="0.5">LAUNCH ANGLE (&theta;)</text>
  <text x="310" y="135" fill="#3b82f6" font-family="monospace" font-size="12" font-weight="600" text-anchor="end">45&deg;</text>
  <rect x="35" y="145" width="290" height="4" fill="#1f2937" rx="2"/>
  <circle cx="225" cy="147" r="7" fill="#3b82f6"/>
  <text x="35" y="185" fill="#94a3b8" font-family="monospace" font-size="10" letter-spacing="0.5">INITIAL VELOCITY (u)</text>
  <text x="310" y="185" fill="#3b82f6" font-family="monospace" font-size="12" font-weight="600" text-anchor="end">50.0 m/s</text>
  <rect x="35" y="195" width="290" height="4" fill="#1f2937" rx="2"/>
  <circle cx="165" cy="197" r="7" fill="#3b82f6"/>
  <text x="35" y="230" fill="#94a3b8" font-family="monospace" font-size="10" letter-spacing="0.5">GRAVITATIONAL FIELD (g)</text>
  <rect x="35" y="240" width="90" height="36" fill="rgba(59,130,246,0.15)" rx="6" stroke="#3b82f6" stroke-width="1"/>
  <text x="80" y="253" fill="#3b82f6" font-family="monospace" font-size="9" font-weight="600" text-anchor="middle">EARTH</text>
  <text x="80" y="266" fill="#3b82f6" font-family="monospace" font-size="8" text-anchor="middle">9.81 m/s&sup2;</text>
  <rect x="130" y="240" width="90" height="36" fill="#1f2937" rx="6" stroke="#1f2937" stroke-width="1"/>
  <text x="175" y="253" fill="#94a3b8" font-family="monospace" font-size="9" font-weight="600" text-anchor="middle">MARS</text>
  <text x="175" y="266" fill="#64748b" font-family="monospace" font-size="8" text-anchor="middle">3.71 m/s&sup2;</text>
  <rect x="225" y="240" width="90" height="36" fill="#1f2937" rx="6" stroke="#1f2937" stroke-width="1"/>
  <text x="270" y="253" fill="#94a3b8" font-family="monospace" font-size="9" font-weight="600" text-anchor="middle">MOON</text>
  <text x="270" y="266" fill="#64748b" font-family="monospace" font-size="8" text-anchor="middle">1.62 m/s&sup2;</text>
  <rect x="20" y="340" width="320" height="140" fill="rgba(26,31,46,0.8)" rx="10"/>
  <text x="35" y="365" fill="#64748b" font-family="monospace" font-size="10" letter-spacing="1">VECTOR TELEMETRY</text>
  <rect x="30" y="380" width="300" height="28" fill="#111827" rx="4"/>
  <rect x="30" y="380" width="3" height="28" fill="#3b82f6" rx="1.5"/>
  <text x="42" y="398" fill="#64748b" font-family="monospace" font-size="9">MAX HORIZONTAL RANGE (R)</text>
  <text x="315" y="398" fill="#f8fafc" font-family="monospace" font-size="13" font-weight="700" text-anchor="end">254.56 m</text>
  <rect x="30" y="414" width="300" height="28" fill="#111827" rx="4"/>
  <rect x="30" y="414" width="3" height="28" fill="#f59e0b" rx="1.5"/>
  <text x="42" y="432" fill="#64748b" font-family="monospace" font-size="9">PEAK APOGEE HEIGHT (H)</text>
  <text x="315" y="432" fill="#f8fafc" font-family="monospace" font-size="13" font-weight="700" text-anchor="end">63.64 m</text>
  <rect x="30" y="448" width="300" height="28" fill="#111827" rx="4"/>
  <rect x="30" y="448" width="3" height="28" fill="#10b981" rx="1.5"/>
  <text x="42" y="466" fill="#64748b" font-family="monospace" font-size="9">TOTAL FLIGHT TIME (T)</text>
  <text x="315" y="466" fill="#f8fafc" font-family="monospace" font-size="13" font-weight="700" text-anchor="end">7.21 s</text>
  <rect x="20" y="500" width="320" height="36" fill="rgba(26,31,46,0.8)" rx="8"/>
  <circle cx="35" cy="518" r="4" fill="#10b981"/>
  <text x="48" y="522" fill="#94a3b8" font-family="monospace" font-size="11" letter-spacing="0.5">SYSTEM READY</text>
  <rect x="20" y="554" width="320" height="44" fill="#3b82f6" rx="10"/>
  <text x="180" y="580" fill="#fff" font-family="monospace" font-size="12" font-weight="700" letter-spacing="1.5" text-anchor="middle">FIRE BALISTIC SIMULATION</text>
  <rect x="390" y="0" width="890" height="34" fill="rgba(17,24,39,0.9)"/>
  <text x="1080" y="22" fill="#94a3b8" font-family="monospace" font-size="11">X(t): <tspan fill="#f8fafc" font-weight="600">0.00</tspan> m</text>
  <text x="1220" y="22" fill="#94a3b8" font-family="monospace" font-size="11">Y(t): <tspan fill="#f8fafc" font-weight="600">0.00</tspan> m</text>
  <rect x="410" y="55" width="830" height="650" fill="none"/>
  <line x1="470" y1="675" x2="1220" y2="675" stroke="#1f2937" stroke-width="2"/>
  <line x1="470" y1="55" x2="470" y2="675" stroke="#1f2937" stroke-width="2"/>
  <line x1="470" y1="675" x2="470" y2="55" stroke="rgba(255,255,255,0.03)" stroke-width="1"/>
  <line x1="660" y1="675" x2="660" y2="55" stroke="rgba(255,255,255,0.03)" stroke-width="1"/>
  <line x1="850" y1="675" x2="850" y2="55" stroke="rgba(255,255,255,0.03)" stroke-width="1"/>
  <line x1="1040" y1="675" x2="1040" y2="55" stroke="rgba(255,255,255,0.03)" stroke-width="1"/>
  <line x1="1230" y1="675" x2="1230" y2="55" stroke="rgba(255,255,255,0.03)" stroke-width="1"/>
  <line x1="470" y1="530" x2="1220" y2="530" stroke="rgba(255,255,255,0.03)" stroke-width="1"/>
  <line x1="470" y1="390" x2="1220" y2="390" stroke="rgba(255,255,255,0.03)" stroke-width="1"/>
  <line x1="470" y1="250" x2="1220" y2="250" stroke="rgba(255,255,255,0.03)" stroke-width="1"/>
  <line x1="470" y1="110" x2="1220" y2="110" stroke="rgba(255,255,255,0.03)" stroke-width="1"/>
  <path d="M470 675 Q800 100 1150 675" fill="none" stroke="#3b82f6" stroke-width="3" stroke-linecap="round"/>
  <circle cx="590" cy="590" r="6" fill="#3b82f6"/>
  <circle cx="590" cy="590" r="15" fill="url(#projectileGlow)"/>
  <circle cx="800" cy="128" r="4" fill="#f59e0b"/>
  <circle cx="800" cy="128" r="8" fill="none" stroke="rgba(245,158,11,0.3)" stroke-width="2"/>
  <text x="815" y="132" fill="#f59e0b" font-family="monospace" font-size="9">APEX 63.6m</text>
  <circle cx="1150" cy="675" r="4" fill="#10b981"/>
  <circle cx="1150" cy="675" r="8" fill="none" stroke="rgba(16,185,129,0.3)" stroke-width="2"/>
  <text x="1135" y="665" fill="#10b981" font-family="monospace" font-size="9" text-anchor="end">IMPACT 254.6m</text>
  <text x="830" y="705" fill="#64748b" font-family="monospace" font-size="10" text-anchor="middle" letter-spacing="2">PROJECTILE MOTION SIMULATOR</text>
</svg>
