<svg xmlns="http://www.w3.org/2000/svg" viewBox="0 0 320 200">
  <rect width="320" height="200" fill="#07050f"/>
  <rect x="15" y="12" width="290" height="176" rx="6" fill="#05070e" stroke="rgba(16,185,129,0.04)" stroke-width="1"/>
  <text x="22" y="26" font-family="monospace" font-size="4.5" fill="#475569">SCORE</text>
  <text x="48" y="26" font-family="monospace" font-size="4.5" fill="#e2e8f0">0</text>
  <text x="100" y="26" font-family="monospace" font-size="4.5" fill="#475569">VEL</text>
  <text x="120" y="26" font-family="monospace" font-size="4.5" fill="#facc15">0.0</text>
  <text x="190" y="26" font-family="monospace" font-size="4.5" fill="#475569">BEST</text>
  <text x="215" y="26" font-family="monospace" font-size="4.5" fill="#e2e8f0">0</text>
  <rect x="230" y="38" width="16" height="42" rx="1" fill="#10b981" opacity="0.9"/>
  <rect x="228" y="68" width="20" height="8" rx="1" fill="#10b981" opacity="0.9"/>
  <rect x="230" y="80" width="16" height="40" rx="1" fill="#10b981" opacity="0.9"/>
  <rect x="228" y="76" width="20" height="8" rx="1" fill="#10b981" opacity="0.9"/>
  <rect x="120" y="50" width="16" height="35" rx="1" fill="#10b981" opacity="0.7"/>
  <rect x="118" y="77" width="20" height="8" rx="1" fill="#10b981" opacity="0.7"/>
  <rect x="120" y="85" width="16" height="50" rx="1" fill="#10b981" opacity="0.7"/>
  <rect x="118" y="81" width="20" height="8" rx="1" fill="#10b981" opacity="0.7"/>
  <circle cx="70" cy="75" r="10" fill="#ff2a5f"/>
  <circle cx="67" cy="72" r="3" fill="rgba(255,255,255,0.12)"/>
  <circle cx="73" cy="73" r="2" fill="#fff"/>
  <circle cx="74" cy="73" r="1" fill="#000"/>
  <line x1="10" y1="166" x2="310" y2="166" stroke="#10b981" stroke-width="2"/>
  <line x1="10" y1="170" x2="310" y2="170" stroke="rgba(16,185,129,0.12)" stroke-width="4"/>
</svg>
